<?xml version="1.0" standalone="no"?>
<!DOCTYPE svg PUBLIC "-//W3C//DTD SVG 20010904//EN"
 "http://www.w3.org/TR/2001/REC-SVG-20010904/DTD/svg10.dtd">
<svg version="1.0" xmlns="http://www.w3.org/2000/svg"
 width="1280.000000pt" height="1149.000000pt" viewBox="0 0 1280.000000 1149.000000"
 preserveAspectRatio="xMidYMid meet">
<metadata>
Created by potrace 1.15, written by Peter Selinger 2001-2017
</metadata>
<g transform="translate(0.000000,1149.000000) scale(0.100000,-0.100000)"
fill="#000000" stroke="none">
<path d="M7992 11469 c-104 -52 -130 -184 -52 -272 16 -18 82 -62 147 -97 983
-529 1497 -972 2005 -1730 181 -270 618 -1004 618 -1038 0 -5 -33 -29 -72 -53
-121 -73 -422 -283 -623 -434 -364 -274 -605 -484 -925 -804 l-235 -236 -820
-554 c-3125 -2112 -5593 -3831 -6995 -4871 -509 -378 -1030 -783 -1030 -802 0
-10 32 6 260 130 975 530 2765 1618 5205 3164 369 233 684 432 700 442 l30 18
-30 -23 c-323 -256 -549 -642 -656 -1124 -121 -548 -49 -1137 202 -1636 280
-559 757 -971 1430 -1237 390 -154 699 -241 1034 -293 127 -20 462 -17 570 4
489 98 763 402 800 887 23 306 -102 756 -317 1143 -120 216 -292 465 -342 496
-133 82 -306 -41 -266 -189 6 -23 47 -92 90 -154 235 -334 384 -650 451 -957
29 -136 32 -361 6 -459 -57 -214 -189 -343 -412 -401 -160 -42 -440 -37 -688
12 -414 81 -965 288 -1270 477 -543 335 -869 821 -968 1442 -18 112 -19 515
-1 630 84 544 351 990 697 1163 161 80 327 92 510 35 73 -22 466 -218 710
-353 890 -492 1188 -639 1550 -764 785 -272 1515 -215 2237 175 155 83 274
172 383 286 546 566 583 1500 115 2844 -118 338 -333 852 -469 1121 l-30 61
117 88 c762 577 1219 1127 1131 1361 -80 214 -533 154 -1199 -158 -145 -68
-409 -204 -505 -261 -53 -32 -61 -34 -71 -19 -6 9 -63 108 -126 221 -310 551
-642 1044 -919 1365 -421 488 -1011 932 -1741 1314 -132 68 -166 74 -236 40z
m4388 -2705 c29 -34 -73 -178 -229 -326 -192 -182 -745 -618 -762 -601 -4 4
-51 91 -104 193 -54 102 -101 189 -105 193 -4 4 -75 -33 -158 -83 l-151 -91
65 -122 c100 -188 159 -306 154 -311 -19 -17 -421 -274 -575 -368 -633 -382
-1132 -607 -1249 -562 -26 10 -19 65 15 119 17 27 83 102 147 168 224 229 619
540 1103 869 895 609 1754 1037 1849 922z m-925 -1914 c553 -1284 694 -2255
411 -2835 -108 -222 -253 -367 -496 -498 -455 -245 -912 -344 -1352 -292 -476
56 -882 218 -1793 720 -392 216 -635 344 -830 437 -253 121 -353 148 -562 148
-166 0 -323 -36 -476 -110 -80 -39 -107 -57 481 319 279 178 929 596 1446 928
516 333 959 613 985 624 25 10 102 39 171 64 484 178 1139 518 1675 869 l130
86 58 -123 c33 -67 101 -219 152 -337z"/>
</g>
</svg>
